<?xml version="1.0" standalone="no"?>
<!DOCTYPE svg PUBLIC "-//W3C//DTD SVG 20010904//EN"
 "http://www.w3.org/TR/2001/REC-SVG-20010904/DTD/svg10.dtd">
<svg version="1.0" xmlns="http://www.w3.org/2000/svg"
 width="700.000000pt" height="700.000000pt" viewBox="0 0 700.000000 700.000000"
 preserveAspectRatio="xMidYMid meet">
<metadata>
Created by potrace 1.14, written by Peter Selinger 2001-2017
</metadata>
<g transform="translate(0.000000,700.000000) scale(0.100000,-0.100000)"
fill="#000000" stroke="none">
<path d="M3279 6125 c-2 -2 -33 -6 -69 -10 -94 -9 -172 -22 -295 -49 -334 -72
-690 -236 -977 -448 -46 -34 -85 -64 -88 -67 -3 -3 -32 -28 -65 -55 -85 -70
-254 -244 -331 -340 -68 -85 -204 -279 -204 -292 0 -4 -6 -15 -14 -23 -62 -73
-244 -497 -272 -635 -2 -10 -8 -33 -13 -50 -11 -33 -48 -217 -56 -276 -17
-126 -20 -178 -20 -380 0 -230 3 -274 31 -440 87 -525 345 -1022 728 -1405
129 -129 161 -157 276 -245 464 -356 1006 -538 1590 -538 341 1 625 51 925
165 169 64 195 78 195 107 0 30 -19 37 -62 26 -18 -5 -44 -11 -58 -14 -14 -2
-59 -11 -101 -19 -42 -9 -107 -18 -145 -22 -38 -4 -80 -8 -94 -11 -32 -5 -320
-5 -380 1 -191 18 -308 39 -492 92 -261 73 -552 222 -788 403 -398 305 -698
744 -836 1222 -31 107 -44 167 -69 303 -3 17 -7 57 -10 90 -3 33 -8 68 -11 78
-12 39 -5 365 10 467 40 274 116 492 250 720 122 208 325 437 491 555 16 11
33 25 39 30 25 24 177 115 256 155 47 23 93 46 104 52 74 39 345 119 451 134
28 3 52 7 55 9 10 6 207 18 286 17 339 -1 690 -101 983 -278 193 -118 406
-309 539 -486 223 -297 340 -594 387 -983 8 -64 8 -305 0 -370 -22 -184 -71
-398 -115 -500 -5 -11 -21 -49 -36 -85 -35 -81 -85 -177 -134 -253 l-37 -59
-10 39 c-6 21 -32 103 -57 183 -55 169 -102 316 -150 468 -19 59 -66 206 -104
327 -177 555 -222 697 -252 795 -49 160 -20 149 -379 147 -290 -2 -301 -3
-321 -23 -12 -11 -22 -27 -24 -35 -1 -8 -16 -59 -34 -114 -48 -152 -142 -458
-147 -475 -6 -24 -40 -134 -85 -275 -22 -71 -47 -150 -54 -175 -31 -110 -149
-487 -158 -510 -6 -14 -12 -20 -14 -15 -2 6 -26 93 -53 195 -27 102 -74 282
-106 400 -31 118 -58 222 -60 230 -2 8 -28 107 -58 220 -31 113 -74 277 -97
365 -32 122 -48 165 -65 182 -24 21 -29 21 -355 20 -310 0 -333 -2 -356 -19
-39 -31 -42 -15 111 -513 19 -60 64 -207 100 -325 37 -118 79 -258 95 -310 15
-52 47 -156 70 -230 23 -74 44 -142 45 -150 2 -8 8 -28 14 -45 10 -34 269
-875 307 -1000 38 -126 14 -117 350 -117 368 0 341 -1 363 21 10 10 33 65 50
122 18 57 35 111 38 119 3 8 7 20 9 25 3 14 81 256 104 325 10 30 30 93 45
140 14 47 46 146 70 220 46 144 166 522 192 605 22 73 30 74 43 9 12 -58 29
-115 71 -244 28 -88 94 -295 129 -405 36 -115 89 -282 180 -565 77 -242 100
-315 180 -570 52 -169 76 -210 119 -210 34 0 277 171 390 275 362 329 612 708
757 1145 39 117 87 308 103 415 6 39 13 86 17 105 3 19 7 141 9 270 3 221 0
268 -30 485 -4 28 -25 120 -46 205 -219 865 -866 1562 -1713 1845 -167 56
-340 96 -470 111 -28 3 -62 8 -76 11 -29 6 -506 14 -511 8z"/>
</g>
</svg>
